{
  "asset": {
    "version": "2.0",
    "generator": "THREE.GLTFExporter"
  },
  "scenes": [
    {
      "nodes": [
        0
      ]
    }
  ],
  "scene": 0,
  "nodes": [
    {
      "children": [
        8
      ],
      "matrix": [
        0.01,
        0,
        0,
        0,
        0,
        0.01,
        0,
        0,
        0,
        0,
        0.01,
        0,
        0,
        0,
        0,
        1
      ]
    },
    {
      "matrix": [
        1,
        0,
        0,
        0,
        0,
        1,
        0,
        0,
        0,
        0,
        1,
        0,
        96.4610769707121,
        0,
        0,
        1
      ],
      "name": "Point Light",
      "extensions": {
        "KHR_lights_punctual": {
          "light": 0
        }
      }
    },
    {
      "matrix": [
        1,
        0,
        0,
        0,
        0,
        0.9220574094012727,
        -0.38705314075487607,
        0,
        0,
        0.38705314075487607,
        0.9220574094012727,
        0,
        0,
        -7.105427357601002e-15,
        -1.4210854715202004e-14,
        1
      ],
      "name": "Torus Knot",
      "mesh": 0
    },
    {
      "matrix": [
        1,
        0,
        0,
        0,
        0,
        0.9646225662775778,
        -0.2636347940391406,
        0,
        0,
        0.2636347940391406,
        0.9646225662775778,
        0,
        0,
        0,
        0,
        1
      ],
      "name": "Group",
      "children": [
        2
      ]
    },
    {
      "matrix": [
        0.3000094303762819,
        0,
        0.9539362356495841,
        0,
        0,
        1,
        0,
        0,
        -0.9539362356495841,
        0,
        0.3000094303762819,
        0,
        0,
        0,
        0,
        1
      ],
      "name": "Directional Light 2",
      "extensions": {
        "KHR_lights_punctual": {
          "light": 1
        }
      }
    },
    {
      "matrix": [
        0.4907847770972929,
        0,
        -0.8712808402401377,
        0,
        0,
        1,
        0,
        0,
        0.8712808402401377,
        0,
        0.4907847770972929,
        0,
        0,
        0,
        0,
        1
      ],
      "name": "Directional Light",
      "extensions": {
        "KHR_lights_punctual": {
          "light": 2
        }
      }
    },
    {
      "matrix": [
        1,
        0,
        0,
        0,
        0,
        1,
        -6.123233995736766e-17,
        0,
        0,
        6.123233995736766e-17,
        1,
        0,
        0,
        6.123233995736766e-14,
        1000,
        1
      ],
      "camera": 0
    },
    {
      "matrix": [
        1,
        0,
        0,
        0,
        0,
        1,
        0,
        0,
        0,
        0,
        1,
        0,
        0,
        1,
        0,
        1
      ],
      "name": "Default Ambient Light"
    },
    {
      "name": "Scene 1",
      "children": [
        1,
        3,
        4,
        5,
        6,
        7
      ]
    }
  ],
  "extensions": {
    "KHR_lights_punctual": {
      "lights": [
        {
          "name": "Point Light",
          "color": [
            0.44313725490196076,
            0.21568627450980382,
            1
          ],
          "intensity": 2.8,
          "type": "point",
          "range": 2000
        },
        {
          "name": "Directional Light 2",
          "color": [
            1,
            1,
            1
          ],
          "intensity": 2,
          "type": "directional"
        },
        {
          "name": "Directional Light",
          "color": [
            1,
            1,
            1
          ],
          "intensity": 1,
          "type": "directional"
        }
      ]
    }
  },
  "bufferViews": [
    {
      "buffer": 0,
      "byteOffset": 0,
      "byteLength": 306612,
      "target": 34962,
      "byteStride": 12
    },
    {
      "buffer": 0,
      "byteOffset": 306612,
      "byteLength": 306612,
      "target": 34962,
      "byteStride": 12
    },
    {
      "buffer": 0,
      "byteOffset": 613224,
      "byteLength": 204408,
      "target": 34962,
      "byteStride": 8
    },
    {
      "buffer": 0,
      "byteOffset": 817632,
      "byteLength": 300000,
      "target": 34963
    }
  ],
  "buffers": [
    {
      "byteLength": 1117632,
      "uri": "data:application/octet-stream;base64,"
    }
  ],
  "accessors": [
    {
      "bufferView": 0,
      "componentType": 5126,
      "count": 25551,
      "max": [
        275.498046875,
        267.3028564453125,
        110.31517791748047
      ],
      "min": [
        -243.9591827392578,
        -267.29913330078125,
        -110.30402374267578
      ],
      "type": "VEC3"
    },
    {
      "bufferView": 1,
      "componentType": 5126,
      "count": 25551,
      "max": [
        0.999952495098114,
        0.9996281862258911,
        0.9992131590843201
      ],
      "min": [
        -0.999952495098114,
        -0.9996281862258911,
        -0.9992131590843201
      ],
      "type": "VEC3"
    },
    {
      "bufferView": 2,
      "componentType": 5126,
      "count": 25551,
      "max": [
        1,
        1
      ],
      "min": [
        0,
        0
      ],
      "type": "VEC2"
    },
    {
      "bufferView": 3,
      "componentType": 5123,
      "count": 150000,
      "max": [
        25550
      ],
      "min": [
        0
      ],
      "type": "SCALAR"
    }
  ],
  "materials": [
    {
      "pbrMetallicRoughness": {
        "baseColorFactor": [
          0.41606613813045124,
          0.41606613813045124,
          0.41606613813045124,
          1
        ],
        "metallicFactor": 0.2,
        "roughnessFactor": 0.2
      },
      "doubleSided": false
    }
  ],
  "meshes": [
    {
      "primitives": [
        {
          "mode": 4,
          "attributes": {
            "POSITION": 0,
            "NORMAL": 1,
            "TEXCOORD_0": 2
          },
          "extras": {
            "parameters": {
              "width": 386,
              "tubularSegments": 500,
              "radialSegments": 50,
              "p": 4,
              "q": 10,
              "height": 386,
              "depth": 386,
              "tube": 28,
              "type": "TorusKnotGeometry"
            },
            "type": "TorusKnotGeometry"
          },
          "indices": 3,
          "material": 0
        }
      ]
    }
  ],
  "cameras": [
    {
      "type": "orthographic",
      "orthographic": {
        "xmag": 5.722690368515624,
        "ymag": 3.4328791292187493,
        "zfar": 100000,
        "znear": 0
      }
    }
  ],
  "extensionsUsed": [
    "KHR_lights_punctual"
  ]
}