<svg width="23" height="24" viewBox="0 0 23 24" fill="none" xmlns="http://www.w3.org/2000/svg">
<path d="M9.83594 13.0706C9.83594 11.4605 11.1411 10.1553 12.7513 10.1553H19.3109C20.921 10.1553 22.2262 11.4605 22.2262 13.0706V19.6302C22.2262 21.2403 20.921 22.5456 19.3109 22.5456H12.7513C11.1411 22.5456 9.83594 21.2403 9.83594 19.6302V13.0706Z" fill="#121418"/>
<path d="M11.0471 1.89148C11.3133 1.62521 11.3133 1.19351 11.0471 0.927239C10.7808 0.660972 10.3491 0.660972 10.0828 0.927239L8.26074 2.74934C7.99447 3.01561 7.99447 3.44731 8.26074 3.71358L10.0828 5.53568C10.3491 5.80194 10.7808 5.80194 11.0471 5.53568C11.3133 5.26941 11.3133 4.83771 11.0471 4.57144L10.3889 3.91328H20.5803L19.9222 4.57144C19.6559 4.83771 19.6559 5.26941 19.9222 5.53568C20.1885 5.80194 20.6202 5.80194 20.8864 5.53568L22.7085 3.71358C22.9748 3.44731 22.9748 3.01561 22.7085 2.74934L20.8864 0.927239C20.6202 0.660972 20.1885 0.660972 19.9222 0.927239C19.6559 1.19351 19.6559 1.62521 19.9222 1.89148L20.5804 2.54965H10.3889L11.0471 1.89148Z" fill="white"/>
<path d="M2.91214 5.1006C3.11449 5.1006 3.30638 5.19048 3.43593 5.34593L5.25803 7.53245C5.49909 7.82173 5.46001 8.25166 5.17073 8.49272C4.88145 8.73379 4.45152 8.69471 4.21045 8.40543L3.59396 7.66563V20.6625L4.21045 19.9227C4.45152 19.6334 4.88145 19.5944 5.17073 19.8354C5.46001 20.0765 5.49909 20.5064 5.25803 20.7957L3.43593 22.9822C3.30638 23.1377 3.11449 23.2275 2.91214 23.2275C2.70979 23.2275 2.51789 23.1377 2.38835 22.9822L0.566251 20.7957C0.325185 20.5064 0.364269 20.0765 0.653549 19.8354C0.942829 19.5944 1.37276 19.6334 1.61383 19.9227L2.23032 20.6625V7.66563L1.61383 8.40543C1.37276 8.69471 0.942829 8.73379 0.653549 8.49272C0.364269 8.25166 0.325185 7.82173 0.566251 7.53245L2.38835 5.34593C2.51789 5.19048 2.70979 5.1006 2.91214 5.1006Z" fill="white"/>
<path fill-rule="evenodd" clip-rule="evenodd" d="M9.1543 13.0708C9.1543 11.0841 10.7648 9.47361 12.7515 9.47361H19.311C21.2977 9.47361 22.9082 11.0841 22.9082 13.0708V19.6304C22.9082 21.6171 21.2977 23.2275 19.311 23.2275H12.7515C10.7648 23.2275 9.1543 21.6171 9.1543 19.6304V13.0708ZM12.7515 10.8372C11.5179 10.8372 10.5179 11.8372 10.5179 13.0708V19.6304C10.5179 20.8639 11.5179 21.8639 12.7515 21.8639H19.311C20.5446 21.8639 21.5446 20.8639 21.5446 19.6304V13.0708C21.5446 11.8372 20.5446 10.8372 19.311 10.8372H12.7515Z" fill="white"/>
</svg>
