<svg width="24" height="24" viewBox="0 0 24 24" fill="none" xmlns="http://www.w3.org/2000/svg">
<path d="M11.9937 20.1379C12.1841 20.1379 12.3745 20.1281 12.5678 20.1128L13.026 20.9751C13.1354 21.2001 13.3665 21.3172 13.6295 21.2708C13.8796 21.2259 14.0612 21.0344 14.0909 20.7744L14.2355 19.8185C14.6025 19.7225 14.9611 19.5863 15.3113 19.4378L16.0207 20.0649C16.2076 20.2337 16.4707 20.2854 16.7124 20.1478C16.9275 20.0224 17.0316 19.7791 16.9685 19.5207L16.776 18.5884C17.0775 18.3645 17.3805 18.1171 17.6546 17.8544L18.5313 18.2197C18.7852 18.3209 19.0315 18.2547 19.2155 18.0426C19.3645 17.8571 19.3956 17.5941 19.255 17.3691L18.7504 16.5509C18.956 16.2411 19.1463 15.9061 19.3215 15.5573L20.2804 15.5924C20.5251 15.6091 20.7669 15.4723 20.8429 15.2153C20.9273 14.9751 20.8429 14.7244 20.6475 14.5685L19.9017 13.9749C19.9961 13.6079 20.0631 13.2242 20.0966 12.8297L20.9954 12.5383C21.2554 12.4554 21.4211 12.2555 21.4211 11.9956C21.4211 11.7287 21.2554 11.5357 20.9954 11.4513L20.0966 11.1613C20.0631 10.7654 19.9961 10.3916 19.9017 10.0163L20.646 9.41575C20.836 9.26526 20.9273 9.02435 20.8429 8.78562C20.7669 8.52714 20.5251 8.39188 20.2804 8.40711L19.3215 8.43372C19.1463 8.0835 18.956 7.75688 18.7504 7.43027L19.255 6.61514C19.3857 6.40688 19.3645 6.14238 19.2155 5.95689C19.0315 5.73792 18.7868 5.67865 18.5366 5.77977L17.6516 6.12832C17.3805 5.88239 17.0775 5.62809 16.776 5.40276L16.9685 4.47731C17.0247 4.2036 16.926 3.9657 16.7094 3.8502C16.4691 3.71409 16.2062 3.75059 16.0207 3.9262L15.3113 4.54796C14.9611 4.40483 14.601 4.27692 14.2355 4.17263L14.0909 3.22508C14.0612 2.96509 13.8796 2.77358 13.6265 2.7272C13.3665 2.68234 13.1316 2.80086 13.0275 3.01297L12.5678 3.87832C12.3745 3.86158 12.1841 3.85471 11.9937 3.85471C11.795 3.85471 11.6115 3.86158 11.4128 3.87832L10.96 3.01448C10.8475 2.79936 10.6195 2.68234 10.3565 2.72871C10.1064 2.77358 9.93995 2.96509 9.89659 3.22508L9.75045 4.16576C9.38499 4.27692 9.02488 4.40483 8.6693 4.54796L7.96835 3.93456C7.77449 3.75059 7.51685 3.71409 7.26825 3.8502C7.05999 3.9657 6.96122 4.2036 7.01746 4.47882L7.20312 5.40276C6.90848 5.62809 6.5986 5.88239 6.32606 6.12832L5.44933 5.77977C5.19922 5.67865 4.95446 5.73792 4.77048 5.95689C4.62148 6.14238 4.59336 6.40688 4.72411 6.61514L5.23555 7.43027C5.02996 7.75688 4.84648 8.0835 4.6645 8.43372L3.70708 8.40711C3.45396 8.39188 3.21908 8.52714 3.14308 8.78412C3.06021 9.02435 3.13622 9.26676 3.33845 9.41575L4.08426 10.0178C3.98985 10.3916 3.92439 10.7654 3.89776 11.1613L2.9837 11.4513C2.72372 11.5288 2.58008 11.7287 2.58008 11.9956C2.58008 12.2624 2.72372 12.4554 2.9837 12.5383L3.89776 12.8297C3.92439 13.2242 3.98985 13.6079 4.08426 13.9749L3.33995 14.5685C3.13622 14.7258 3.06021 14.9751 3.14308 15.2139C3.21908 15.4723 3.45396 15.6091 3.70859 15.5924L4.6645 15.5573C4.84648 15.9061 5.02996 16.2411 5.23555 16.5509L4.72947 17.3706C4.59872 17.5926 4.61462 17.8571 4.77048 18.0426C4.95446 18.2547 5.19922 18.3209 5.4577 18.2182L6.32455 17.8544C6.5986 18.1171 6.90848 18.3645 7.20312 18.5884L7.01746 19.5221C6.97109 19.7791 7.05848 20.0224 7.27126 20.1493C7.51534 20.2854 7.77449 20.2352 7.96684 20.0664L8.6693 19.4378C9.02488 19.5863 9.38348 19.7225 9.75045 19.8253L9.89659 20.7744C9.93995 21.0344 10.1064 21.2259 10.361 21.2723C10.6195 21.3172 10.8475 21.1986 10.96 20.9766L11.4128 20.1128C11.6047 20.1281 11.795 20.1379 11.9937 20.1379ZM11.9937 18.5552C8.33598 18.5552 5.5111 15.6465 5.5111 12.0024C5.5111 8.35152 8.33598 5.43439 11.9937 5.43439C15.6515 5.43439 18.4916 8.35152 18.4916 12.0024C18.4916 15.6465 15.6515 18.5552 11.9937 18.5552ZM10.3956 10.6546L11.5521 9.92737L8.83319 5.25761L7.6198 5.90298L10.3956 10.6546ZM13.9779 12.6657H19.4012V11.3027H13.9794L13.9779 12.6657ZM11.5583 14.0813L10.4162 13.3367L7.53309 18.0509L8.73358 18.7245L11.5583 14.0813ZM11.98 14.3357C13.2706 14.3357 14.3132 13.3013 14.3132 12.0093C14.3132 10.7187 13.2706 9.67608 11.98 9.67608C10.6879 9.67608 9.65368 10.7187 9.65368 12.0093C9.65368 13.3013 10.6879 14.3357 11.98 14.3357ZM11.98 12.9504C11.4466 12.9504 11.0335 12.5495 11.0335 12.0093C11.0335 11.469 11.4466 11.0544 11.98 11.0544C12.5203 11.0544 12.935 11.469 12.935 12.0093C12.935 12.5495 12.5203 12.9504 11.98 12.9504Z" fill="white"/>
</svg>
