<svg width="24" height="22" viewBox="0 0 24 22" fill="none" xmlns="http://www.w3.org/2000/svg">
<path d="M2.07064 4.09684C2.98878 4.09684 3.73308 3.35265 3.73308 2.43465C3.73308 1.51665 2.98878 0.772461 2.07064 0.772461C1.1525 0.772461 0.408203 1.51665 0.408203 2.43465C0.408203 3.35265 1.1525 4.09684 2.07064 4.09684Z" fill="white"/>
<path d="M2.07064 12.8758C2.98878 12.8758 3.73308 12.1316 3.73308 11.2136C3.73308 10.2956 2.98878 9.55141 2.07064 9.55141C1.1525 9.55141 0.408203 10.2956 0.408203 11.2136C0.408203 12.1316 1.1525 12.8758 2.07064 12.8758Z" fill="white"/>
<path d="M6.23179 2.43468C6.23179 1.68157 6.84231 1.07105 7.59543 1.07105L22.1825 1.07105C22.9356 1.07105 23.5461 1.68157 23.5461 2.43469C23.5461 3.1878 22.9356 3.79832 22.1825 3.79832L7.59543 3.79832C6.84231 3.79832 6.23179 3.1878 6.23179 2.43468Z" fill="white"/>
<path d="M7.59543 9.84996C6.84231 9.84996 6.23179 10.4605 6.23179 11.2136C6.23179 11.9667 6.84231 12.5772 7.59543 12.5772L22.1825 12.5772C22.9356 12.5772 23.5461 11.9667 23.5461 11.2136C23.5461 10.4605 22.9356 9.84996 22.1825 9.84996L7.59543 9.84996Z" fill="white"/>
<path d="M2.07064 21.6545C2.98878 21.6545 3.73308 20.9103 3.73308 19.9923C3.73308 19.0743 2.98878 18.3301 2.07064 18.3301C1.1525 18.3301 0.408203 19.0743 0.408203 19.9923C0.408203 20.9103 1.1525 21.6545 2.07064 21.6545Z" fill="white"/>
<path d="M7.59543 18.6287C6.84231 18.6287 6.23179 19.2392 6.23179 19.9923C6.23179 20.7454 6.84231 21.3559 7.59543 21.3559L22.1825 21.3559C22.9356 21.3559 23.5461 20.7454 23.5461 19.9923C23.5461 19.2392 22.9356 18.6287 22.1825 18.6287L7.59543 18.6287Z" fill="white"/>
</svg>
