<svg width="24" height="24" viewBox="0 0 24 24" fill="none" xmlns="http://www.w3.org/2000/svg">
<path d="M3.6057 23.9094H20.3925C22.1585 23.9094 23.59 22.4778 23.59 20.7119V10.5404C23.59 9.40139 23.0302 8.3352 22.0926 7.68857L13.9658 2.08392C12.7818 1.26735 11.2164 1.26735 10.0323 2.08393L1.90566 7.68857C0.968055 8.3352 0.408203 9.40139 0.408203 10.5403V20.7119C0.408203 22.4778 1.83979 23.9094 3.6057 23.9094Z" fill="#121418"/>
<path d="M8.40039 14.0266C8.40039 12.3118 9.83202 10.9219 11.5978 10.9219H12.3972C14.1632 10.9219 15.5947 12.3118 15.5947 14.0266V19.4598H8.40039V14.0266Z" fill="#121418"/>
<path fill-rule="evenodd" clip-rule="evenodd" d="M11.5984 10.2732C9.47514 10.2732 7.71916 11.9496 7.71916 14.0597V19.4929C7.71916 19.8695 8.02442 20.1747 8.40098 20.1747H15.5953C15.9719 20.1747 16.2771 19.8695 16.2771 19.4929V14.0597C16.2771 11.9496 14.5213 10.2732 12.3978 10.2732H11.5984ZM9.0828 14.0597C9.0828 12.7403 10.1901 11.6368 11.5984 11.6368H12.3978C13.8063 11.6368 14.9135 12.7403 14.9135 14.0597V18.8111H9.0828V14.0597Z" fill="white"/>
<path fill-rule="evenodd" clip-rule="evenodd" d="M3.6057 23.9095H20.3925C22.1585 23.9095 23.59 22.478 23.59 20.712V10.5405C23.59 9.40158 23.0302 8.33539 22.0926 7.68876L13.9658 2.08411C12.7818 1.26753 11.2164 1.26754 10.0323 2.08411L1.90566 7.68876C0.968053 8.33539 0.408203 9.40158 0.408203 10.5405V20.712C0.408203 22.478 1.83979 23.9095 3.6057 23.9095ZM20.3925 22.5459H3.6057C2.59289 22.5459 1.77184 21.7249 1.77184 20.712V10.5405C1.77184 9.84991 2.11131 9.20341 2.67984 8.81132L10.8065 3.20668C11.5245 2.71153 12.4737 2.71153 13.1917 3.20667L21.3184 8.81132C21.8869 9.20341 22.2264 9.84991 22.2264 10.5405V20.712C22.2264 21.7249 21.4054 22.5459 20.3925 22.5459Z" fill="white"/>
</svg>
