<svg width="24" height="24" viewBox="0 0 24 24" fill="none" xmlns="http://www.w3.org/2000/svg">
<path d="M6.67941 3.53516L6.70033 3.53505H17.3209C17.2924 2.78997 16.8245 2.35449 16.054 2.35449H7.94629C7.17578 2.35449 6.70787 2.78997 6.67941 3.53516Z" fill="white" fill-opacity="0.96"/>
<path d="M5.00153 6.10062C5.29534 6.05197 5.60672 6.02717 5.93359 6.02717H18.0667C18.2722 6.02717 18.471 6.037 18.6635 6.05636C18.7778 6.06777 18.8895 6.08252 18.9987 6.10062C18.9054 5.22946 18.3178 4.72942 17.3682 4.72942H6.63797C5.68834 4.72942 5.0957 5.22946 5.00153 6.10062Z" fill="white" fill-opacity="0.96"/>
<path d="M18.0667 21.6455H5.93359C4.08036 21.6455 3.09766 20.6659 3.09766 18.8324V10.2145C3.09766 8.37845 4.08036 7.4014 5.93359 7.4014H18.0667C19.9174 7.4014 20.9026 8.37845 20.9026 10.2145V18.8324C20.9026 20.6659 19.9174 21.6455 18.0667 21.6455Z" fill="white" fill-opacity="0.96"/>
</svg>
