<svg width="24" height="24" viewBox="0 0 24 24" fill="none" xmlns="http://www.w3.org/2000/svg">
<g clip-path="url(#clip0_15834_7451)">
<path d="M19.8759 7.125V6.75C19.8749 5.93742 19.634 5.14323 19.1833 4.46709C18.7326 3.79095 18.0922 3.26299 17.3426 2.94945C16.5929 2.63591 15.7674 2.55076 14.9695 2.70469C14.1716 2.85862 13.437 3.24477 12.8578 3.81469C12.8235 3.84922 12.7965 3.8902 12.7781 3.93525C12.7598 3.9803 12.7505 4.02854 12.7509 4.07719V12.3947C12.7511 12.4623 12.7696 12.5286 12.8043 12.5866C12.8391 12.6446 12.8889 12.6921 12.9485 12.7241C13.0081 12.756 13.0752 12.7713 13.1427 12.7683C13.2102 12.7653 13.2757 12.7441 13.3322 12.7069C14.0453 12.2496 14.8738 12.0045 15.7209 12C15.917 11.9964 16.1071 12.068 16.252 12.2002C16.3969 12.3323 16.4856 12.515 16.5 12.7106C16.5053 12.8124 16.4899 12.9142 16.4546 13.0097C16.4193 13.1053 16.3649 13.1927 16.2947 13.2666C16.2246 13.3405 16.1401 13.3993 16.0464 13.4394C15.9527 13.4795 15.8519 13.5001 15.75 13.5C14.9543 13.5 14.1913 13.8161 13.6287 14.3787C13.0661 14.9413 12.75 15.7044 12.75 16.5V19.6763C12.7499 19.7323 12.7624 19.7877 12.7866 19.8384C12.8108 19.889 12.846 19.9335 12.8897 19.9688C13.4219 20.4092 14.0485 20.721 14.7208 20.8799C15.3931 21.0387 16.093 21.0404 16.7661 20.8848C17.4392 20.7291 18.0673 20.4204 18.6016 19.9825C19.1359 19.5446 19.562 18.9894 19.8469 18.36C19.8755 18.2967 19.8861 18.2267 19.8773 18.1578C19.8685 18.0888 19.8407 18.0237 19.797 17.9697C19.7534 17.9156 19.6956 17.8747 19.63 17.8516C19.5645 17.8285 19.4938 17.824 19.4259 17.8387C18.9585 17.9459 18.4805 18 18.0009 18H17.2762C17.0828 18.0024 16.8955 17.9315 16.7521 17.8017C16.6086 17.6718 16.5196 17.4925 16.5028 17.2997C16.496 17.1971 16.5103 17.0942 16.545 16.9974C16.5796 16.9006 16.6338 16.8119 16.7041 16.7369C16.7744 16.6619 16.8594 16.6022 16.9538 16.5615C17.0482 16.5207 17.15 16.4998 17.2528 16.5H18.0028C18.7864 16.5012 19.5585 16.312 20.2528 15.9487C21.075 15.5205 21.7581 14.8668 22.2219 14.0641C22.6857 13.2614 22.9111 12.3432 22.8715 11.417C22.8319 10.4908 22.5291 9.59508 21.9986 8.83489C21.468 8.0747 20.7317 7.48155 19.8759 7.125ZM18.7509 10.5H18.3759C17.4808 10.5 16.6224 10.1444 15.9894 9.51149C15.3565 8.87855 15.0009 8.02011 15.0009 7.125V6.75C15.0009 6.55109 15.0799 6.36032 15.2206 6.21967C15.3613 6.07902 15.552 6 15.7509 6C15.9498 6 16.1406 6.07902 16.2813 6.21967C16.4219 6.36032 16.5009 6.55109 16.5009 6.75V7.125C16.5009 7.37123 16.5494 7.61505 16.6437 7.84253C16.7379 8.07002 16.876 8.27672 17.0501 8.45083C17.4017 8.80246 17.8786 9 18.3759 9H18.7509C18.9498 9 19.1406 9.07902 19.2813 9.21967C19.4219 9.36032 19.5009 9.55109 19.5009 9.75C19.5009 9.94891 19.4219 10.1397 19.2813 10.2803C19.1406 10.421 18.9498 10.5 18.7509 10.5ZM8.25093 2.625C7.15729 2.62624 6.1088 3.06124 5.33548 3.83456C4.56216 4.60787 4.12717 5.65636 4.12593 6.75V7.125C3.2703 7.48174 2.53412 8.07505 2.00373 8.83534C1.47333 9.59563 1.17071 10.4914 1.13135 11.4176C1.09199 12.3438 1.31752 13.262 1.78149 14.0645C2.24547 14.8671 2.92865 15.5207 3.75093 15.9487C4.44521 16.312 5.21735 16.5012 6.00093 16.5H6.72562C6.91943 16.4971 7.10714 16.5678 7.25098 16.6977C7.39482 16.8276 7.48413 17.0072 7.50093 17.2003C7.50774 17.3029 7.49339 17.4058 7.45876 17.5026C7.42413 17.5994 7.36996 17.6881 7.29963 17.7631C7.22929 17.8381 7.14429 17.8978 7.0499 17.9385C6.95551 17.9793 6.85374 18.0002 6.75093 18H6.00093C5.521 18.0002 5.04261 17.9458 4.57499 17.8378C4.50713 17.823 4.43649 17.8273 4.37094 17.8503C4.3054 17.8733 4.24753 17.9141 4.20378 17.968C4.16004 18.022 4.13214 18.087 4.12319 18.1559C4.11425 18.2248 4.12461 18.2948 4.15312 18.3581C4.43787 18.9877 4.86396 19.5431 5.39829 19.9812C5.93261 20.4192 6.56076 20.7282 7.23391 20.884C7.90706 21.0398 8.60708 21.0383 9.27955 20.8796C9.95202 20.7208 10.5788 20.4091 11.1112 19.9688C11.1549 19.9335 11.1901 19.889 11.2143 19.8384C11.2385 19.7877 11.251 19.7323 11.2509 19.6763V16.5C11.2509 15.7044 10.9349 14.9413 10.3722 14.3787C9.80964 13.8161 9.04658 13.5 8.25093 13.5C8.14903 13.5001 8.04818 13.4795 7.95452 13.4394C7.86086 13.3993 7.77636 13.3405 7.70618 13.2666C7.63599 13.1927 7.5816 13.1053 7.54631 13.0097C7.51102 12.9142 7.49558 12.8124 7.50093 12.7106C7.51529 12.5149 7.60418 12.332 7.74928 12.1998C7.89439 12.0676 8.08467 11.9961 8.28093 12C9.12808 12.0045 9.95652 12.2496 10.6697 12.7069C10.7261 12.7441 10.7916 12.7653 10.8592 12.7683C10.9267 12.7713 10.9938 12.756 11.0534 12.7241C11.1129 12.6921 11.1627 12.6446 11.1975 12.5866C11.2323 12.5286 11.2507 12.4623 11.2509 12.3947V4.07719C11.2513 3.97875 11.2129 3.88413 11.1441 3.81375C10.374 3.05177 9.33427 2.62457 8.25093 2.625ZM9.00093 7.125C9.00093 8.02011 8.64535 8.87855 8.01241 9.51149C7.37948 10.1444 6.52103 10.5 5.62593 10.5H5.25093C5.05202 10.5 4.86125 10.421 4.7206 10.2803C4.57995 10.1397 4.50093 9.94891 4.50093 9.75C4.50093 9.55109 4.57995 9.36032 4.7206 9.21967C4.86125 9.07902 5.05202 9 5.25093 9H5.62593C5.87216 9 6.11598 8.9515 6.34346 8.85727C6.57095 8.76305 6.77764 8.62494 6.95175 8.45083C7.12586 8.27672 7.26398 8.07002 7.3582 7.84253C7.45243 7.61505 7.50093 7.37123 7.50093 7.125V6.75C7.50093 6.55109 7.57995 6.36032 7.7206 6.21967C7.86125 6.07902 8.05202 6 8.25093 6C8.44984 6 8.64061 6.07902 8.78126 6.21967C8.92191 6.36032 9.00093 6.55109 9.00093 6.75V7.125Z" fill="white"/>
</g>
<defs>
<clipPath id="clip0_15834_7451">
<rect width="24" height="24" fill="white"/>
</clipPath>
</defs>
</svg>
